<svg xmlns="http://www.w3.org/2000/svg" data-name="Layer 1" viewBox="0 0 100 125" x="0px" y="0px"><title>A</title><path d="M61.37579,87.49768H95.00006v-6.825H71.1424A42.17177,42.17177,0,0,1,61.37579,87.49768Z"/><path d="M42.4975,87.49762A37.49765,37.49765,0,1,0,4.99994,49.99994,37.49762,37.49762,0,0,0,42.4975,87.49762Zm15.1228-55.4057A7.94744,7.94744,0,1,1,54.71136,42.9483,7.9475,7.9475,0,0,1,57.6203,32.09192ZM54.71136,57.05157A7.94745,7.94745,0,1,1,57.6203,67.908,7.9475,7.9475,0,0,1,54.71136,57.05157ZM42.4975,20.00183a7.94742,7.94742,0,1,1-7.94727,7.94739A7.94746,7.94746,0,0,1,42.4975,20.00183Zm6.05871,29.99811a6.05866,6.05866,0,1,1-6.05871-6.05866A6.05862,6.05862,0,0,1,48.55621,49.99994ZM42.4975,64.10321a7.94745,7.94745,0,1,1-7.94727,7.94745A7.94751,7.94751,0,0,1,42.4975,64.10321Zm-25.979-29.10236a7.94739,7.94739,0,1,1,2.90894,10.85639A7.94738,7.94738,0,0,1,16.51849,35.00085Zm2.90894,19.14179A7.94741,7.94741,0,1,1,16.51849,64.999,7.9474,7.9474,0,0,1,19.42743,54.14264Z"/><text x="0" y="115" fill="#000000" font-size="5px" font-weight="bold" font-family="'Helvetica Neue', Helvetica, Arial-Unicode, Arial, Sans-serif">Created by Markus</text><text x="0" y="120" fill="#000000" font-size="5px" font-weight="bold" font-family="'Helvetica Neue', Helvetica, Arial-Unicode, Arial, Sans-serif">from the Noun Project</text></svg>